<?xml version="1.0" encoding="utf-8"?>
<!-- Generator: Adobe Illustrator 23.1.1, SVG Export Plug-In . SVG Version: 6.00 Build 0)  -->
<svg version="1.1" id="Layer_1" xmlns="http://www.w3.org/2000/svg" xmlns:xlink="http://www.w3.org/1999/xlink" x="0px" y="0px"
	 viewBox="0 0 100 100" style="enable-background:new 0 0 100 100;" xml:space="preserve">
<style type="text/css">
	.st0{fill-rule:evenodd;clip-rule:evenodd;fill:#55BB67;}
	.st1{fill:#163647;}
	.st2{fill-rule:evenodd;clip-rule:evenodd;fill:#163647;}
</style>
<g>
	<path id="Path_1632" class="st0" d="M70.9,8.7c-0.7-0.4-1.5-0.9-2.3-1.3c-0.8-0.4-1.6-0.8-2.4-1.1c-0.3-0.1-0.5-0.2-0.8-0.3
		c-0.7-0.3-1.5-0.6-2.2-0.8C41.7-1.8,18.4,9.9,11.4,31.5c-7.1,21.6,4.7,44.8,26.3,51.9c1.6,0.5,3.3,1,5,1.3v11.8
		c24.6-3.7,46.4-23.2,48-48.9C91.6,32.1,83.9,16.4,70.9,8.7z"/>
	<path id="Path_1633" class="st1" d="M40.4,99V86.4C17.1,80.9,2.7,57.5,8.3,34.3C12.9,14.8,30.4,1,50.4,1c4.6,0,9.1,0.7,13.5,2.1
		c0.6,0.2,1.2,0.4,1.8,0.6L66.2,4c0.3,0.1,0.6,0.2,0.9,0.4c0.7,0.3,1.6,0.7,2.5,1.1c0.8,0.4,1.6,0.9,2.4,1.3
		c13.5,7.9,21.8,24.4,20.8,40.9c-1.6,25.4-22.6,46.8-49.9,50.9L40.4,99z M50.5,5.4L50.5,5.4c-21.5,0-38.9,17.4-39,38.9
		c0,18.6,13.2,34.6,31.5,38.2l1.8,0.3v11c24-4.7,42.2-23.9,43.6-46.4c0.9-14.9-6.5-29.7-18.6-36.8l0,0c-0.7-0.4-1.4-0.8-2.1-1.2
		c-0.9-0.4-1.6-0.8-2.3-1c-0.3-0.1-0.5-0.2-0.7-0.3l-0.6-0.2c-0.5-0.2-1-0.4-1.5-0.5C58.7,6.1,54.6,5.4,50.5,5.4L50.5,5.4z"/>
	<path class="st2" d="M42.2,23.5c1.3-0.2,2.5,0.3,3.3,1.3c0.6,0.7,1.2,1.5,1.5,2.3c1.4,3,2.2,7.3,0.5,9.7c-3.6-0.9-6.6-3.3-8.4-6.5
		c-0.4-0.9-0.7-1.8-0.7-2.8C38.5,25.4,40.1,23.7,42.2,23.5z M32.3,33.7c0.2,0,0.4,0,0.7,0c1,0,2.1,0.2,3,0.7c3,1.3,6.4,4.5,7,7.3
		c-2.6,1.7-7.3,1.6-10.3,0.3c-0.9-0.4-1.8-1-2.6-1.6c-1.6-1.2-2-3.6-0.7-5.2C30.2,34.3,31.2,33.7,32.3,33.7z M36.1,55.3
		c-0.9,0.5-2,0.7-3,0.7c-2.1,0.2-4-1.3-4.3-3.4c-0.1-1.3,0.3-2.5,1.3-3.3c0.7-0.7,1.6-1.2,2.6-1.6c1.1-0.5,2.3-0.7,3.5-0.7
		c2,0,5.3-0.5,7,0.6C42.7,50.4,39.1,54,36.1,55.3z M48.5,62.3c-0.4,0.9-0.9,1.8-1.5,2.6c-2.2,2.8-7.2,0.8-7-2.8c0-1,0.2-1.9,0.7-2.8
		c1.3-3,4.8-6.7,7.8-7.4C50.3,54.4,49.8,59.4,48.5,62.3z M53.8,27c0.4-0.9,0.9-1.8,1.5-2.6c0.8-1,2.1-1.5,3.4-1.4
		c2.2,0.1,3.8,2,3.8,4.1c0,1-0.2,2-0.7,2.8c-1.5,3.2-4.4,5.7-7.8,6.7C52.1,34.4,52.5,30,53.8,27z M55.7,64.8
		c-0.6-0.7-1.1-1.5-1.5-2.4c-1.3-3-1.3-7.6,0.5-9.9c3,0.6,6.2,3.9,7.5,6.9c0.4,0.9,0.7,1.9,0.7,2.8C63.1,65.5,58.1,67.4,55.7,64.8z
		 M68.9,55.8c-1,0-2.1-0.2-3-0.7c-3-1.3-6.3-4.3-7-7.1c1.7-1.1,4.7-1.2,6.7-1.2c1.2,0,2.4,0.3,3.5,0.7c0.9,0.4,1.8,0.9,2.6,1.5
		C74.7,51.2,72.8,56,68.9,55.8z"/>
</g>
</svg>
